<?xml version="1.0" encoding="UTF-8"?>
<!DOCTYPE svg PUBLIC "-//W3C//DTD SVG 1.1//EN" "http://www.w3.org/Graphics/SVG/1.1/DTD/svg11.dtd">
<svg xmlns="http://www.w3.org/2000/svg" version="1.1" width="512px" height="512px" style="shape-rendering:geometricPrecision; text-rendering:geometricPrecision; image-rendering:optimizeQuality; fill-rule:evenodd; clip-rule:evenodd" xmlns:xlink="http://www.w3.org/1999/xlink">
<g><path style="opacity:0.77" fill="#000000" d="M 236.5,71.5 C 244.49,72.0716 252.49,72.7383 260.5,73.5C 253.5,74.1667 246.5,74.8333 239.5,75.5C 243.065,77.4445 246.898,78.4445 251,78.5C 256.436,77.594 261.936,76.9273 267.5,76.5C 273.167,77.1667 278.833,77.8333 284.5,78.5C 288.946,78.6213 292.946,77.4546 296.5,75C 289.5,74.6667 282.5,74.3333 275.5,74C 282.715,72.8342 290.049,72.0009 297.5,71.5C 305.118,72.3014 312.784,72.8014 320.5,73C 313.644,74.1335 306.644,74.9668 299.5,75.5C 300.325,76.3857 301.325,76.719 302.5,76.5C 302.882,84.324 299.716,86.6573 293,83.5C 287.188,85.078 281.355,86.578 275.5,88C 277.587,88.7922 279.421,89.9588 281,91.5C 283.202,95.6063 284.702,99.9396 285.5,104.5C 287.167,104.5 288.833,104.5 290.5,104.5C 290.5,105.833 290.5,107.167 290.5,108.5C 287.881,108.768 285.381,108.435 283,107.5C 281.36,103.608 280.027,99.6079 279,95.5C 277.981,94.3128 276.814,93.3128 275.5,92.5C 274.786,95.0272 274.12,97.5272 273.5,100C 271.645,100.422 269.811,100.922 268,101.5C 266.189,100.922 264.355,100.422 262.5,100C 261.632,96.9924 261.298,94.1591 261.5,91.5C 260.252,92.0402 259.085,92.7069 258,93.5C 256.016,98.4686 253.849,103.302 251.5,108C 249.527,108.495 247.527,108.662 245.5,108.5C 245.5,107.167 245.5,105.833 245.5,104.5C 247.144,104.714 248.644,104.38 250,103.5C 250.78,96.7721 253.947,91.6055 259.5,88C 253.726,86.2648 247.893,84.7648 242,83.5C 236.41,86.1518 233.244,84.1518 232.5,77.5C 233.833,76.8333 235.167,76.1667 236.5,75.5C 229.524,74.6689 222.524,74.1689 215.5,74C 222.512,72.8693 229.512,72.0359 236.5,71.5 Z"/></g>
<g><path style="opacity:0.477" fill="#000000" d="M 210.5,90.5 C 220.522,90.1681 230.522,90.5015 240.5,91.5C 235.5,91.8333 230.5,92.1667 225.5,92.5C 220.119,92.4942 215.119,91.8275 210.5,90.5 Z"/></g>
<g><path style="opacity:0.489" fill="#000000" d="M 186.5,93.5 C 200.516,93.1674 214.516,93.5008 228.5,94.5C 221.5,94.8333 214.5,95.1667 207.5,95.5C 200.133,95.4971 193.133,94.8304 186.5,93.5 Z"/></g>
<g><path style="opacity:0.479" fill="#000000" d="M 204.5,96.5 C 214.522,96.1681 224.522,96.5015 234.5,97.5C 229.5,97.8333 224.5,98.1667 219.5,98.5C 214.119,98.4942 209.119,97.8275 204.5,96.5 Z"/></g>
<g><path style="opacity:0.915" fill="#000000" d="M 101.5,139.5 C 103.833,139.5 106.167,139.5 108.5,139.5C 108.197,142.588 109.53,144.254 112.5,144.5C 112.238,143.022 112.571,141.689 113.5,140.5C 119.531,143.031 123.698,147.365 126,153.5C 132.122,156.782 131.955,159.616 125.5,162C 126.667,162.5 127.5,163.333 128,164.5C 130.654,183.85 122.154,193.016 102.5,192C 92.7896,189.621 87.2896,183.455 86,173.5C 80.0218,171.914 79.1884,169.081 83.5,165C 82.0595,158.053 83.7262,151.886 88.5,146.5C 89.2752,148.475 90.6086,149.309 92.5,149C 92.6256,147.026 92.7922,144.859 93,142.5C 94.5843,141.139 96.4176,140.472 98.5,140.5C 98.6432,143.097 99.4766,145.431 101,147.5C 101.944,146.737 102.444,145.737 102.5,144.5C 101.954,142.865 101.62,141.199 101.5,139.5 Z"/></g>
<g><path style="opacity:0.726" fill="#000000" d="M 391.5,174.5 C 392.117,174.611 392.617,174.944 393,175.5C 395.333,184.167 397.667,192.833 400,201.5C 400.414,201.957 400.914,202.291 401.5,202.5C 416.66,196.558 431.994,191.225 447.5,186.5C 447.421,187.93 447.754,189.264 448.5,190.5C 433.473,196.954 418.139,202.621 402.5,207.5C 405.513,220.884 408.846,234.217 412.5,247.5C 412.5,249.5 411.5,250.5 409.5,250.5C 408.353,250.182 407.519,249.516 407,248.5C 403.572,235.949 400.072,223.449 396.5,211C 395.216,210.316 394.049,210.483 393,211.5C 389.882,226.854 385.549,241.854 380,256.5C 379.174,258.405 378.007,258.739 376.5,257.5C 383.23,243.152 387.397,228.152 389,212.5C 385.268,213.688 381.768,215.355 378.5,217.5C 371.977,229.185 364.477,240.185 356,250.5C 355.626,249.584 355.126,248.75 354.5,248C 361.66,238.681 368.327,229.015 374.5,219C 369.885,220.032 365.218,221.198 360.5,222.5C 359.862,220.54 359.862,218.707 360.5,217C 367.095,214.691 373.595,212.191 380,209.5C 383.861,203.112 387.194,196.446 390,189.5C 389.919,185.403 389.086,181.403 387.5,177.5C 388.624,176.141 389.958,175.141 391.5,174.5 Z M 390.5,193.5 C 391.693,193.97 392.36,194.97 392.5,196.5C 392,199.5 391.5,202.5 391,205.5C 388.688,207.16 386.188,207.993 383.5,208C 386.245,203.343 388.579,198.51 390.5,193.5 Z"/></g>
<g><path style="opacity:0.713" fill="#000000" d="M 165.5,175.5 C 166.5,175.5 167.5,175.5 168.5,175.5C 164.101,188.02 159.101,200.354 153.5,212.5C 154.945,217.059 157.945,220.059 162.5,221.5C 163.818,226.531 162.151,230.197 157.5,232.5C 156.103,230.258 153.603,228.591 150,227.5C 149.493,228.996 149.993,230.163 151.5,231C 149.741,231.798 148.074,231.631 146.5,230.5C 145.481,224.903 144.148,219.403 142.5,214C 145.443,213.058 148.276,211.892 151,210.5C 156.135,198.919 160.969,187.252 165.5,175.5 Z M 151.5,223.5 C 154.524,223.364 156.024,224.698 156,227.5C 153.882,226.717 152.382,225.384 151.5,223.5 Z"/></g>
<g><path style="opacity:0.91" fill="#000000" d="M 83.5,192.5 C 85.9477,192.085 87.2811,193.085 87.5,195.5C 85.101,207.011 82.2677,218.345 79,229.5C 78.6667,237.833 78.3333,246.167 78,254.5C 68.9982,253.109 64.1649,247.943 63.5,239C 63.7215,225.203 67.2215,212.37 74,200.5C 77.145,197.696 80.3117,195.03 83.5,192.5 Z"/></g>
<g><path style="opacity:0.91" fill="#000000" d="M 123.5,192.5 C 124.552,192.351 125.552,192.517 126.5,193C 133.887,197.909 138.72,204.743 141,213.5C 142.619,219.761 143.786,226.095 144.5,232.5C 149.602,232.862 154.602,233.695 159.5,235C 162.902,238.719 163.402,242.886 161,247.5C 158.413,249.014 155.58,249.68 152.5,249.5C 145.283,249.131 138.283,247.798 131.5,245.5C 129.803,228.675 126.803,212.009 122.5,195.5C 122.685,194.416 123.018,193.416 123.5,192.5 Z"/></g>
<g><path style="opacity:0.937" fill="#000000" d="M 102.5,197.5 C 104.167,197.5 105.833,197.5 107.5,197.5C 107.5,209.167 107.5,220.833 107.5,232.5C 114.5,232.5 121.5,232.5 128.5,232.5C 128.5,234.167 128.5,235.833 128.5,237.5C 121.5,237.5 114.5,237.5 107.5,237.5C 107.5,239.5 107.5,241.5 107.5,243.5C 114.5,243.5 121.5,243.5 128.5,243.5C 128.5,245.167 128.5,246.833 128.5,248.5C 121.5,248.5 114.5,248.5 107.5,248.5C 107.5,252.5 107.5,256.5 107.5,260.5C 115.84,260.334 124.173,260.5 132.5,261C 133.816,262.978 133.316,264.478 131,265.5C 130.667,298.167 130.333,330.833 130,363.5C 125.156,370.252 118.99,371.752 111.5,368C 109.106,366.048 107.606,363.548 107,360.5C 106.5,331.502 106.333,302.502 106.5,273.5C 105.5,273.5 104.5,273.5 103.5,273.5C 103.667,302.835 103.5,332.169 103,361.5C 99.4052,369.192 93.5719,371.692 85.5,369C 83.2911,367.127 81.4578,364.96 80,362.5C 79.8332,330.162 79.3332,297.828 78.5,265.5C 76.2381,264.655 75.5714,263.322 76.5,261.5C 85.1411,260.502 93.8078,260.169 102.5,260.5C 102.5,256.5 102.5,252.5 102.5,248.5C 95.5,248.5 88.5,248.5 81.5,248.5C 81.5,246.833 81.5,245.167 81.5,243.5C 88.5,243.5 95.5,243.5 102.5,243.5C 102.5,241.5 102.5,239.5 102.5,237.5C 95.5,237.5 88.5,237.5 81.5,237.5C 81.5,235.833 81.5,234.167 81.5,232.5C 88.5,232.5 95.5,232.5 102.5,232.5C 102.5,220.833 102.5,209.167 102.5,197.5 Z"/></g>
<g><path style="opacity:0.92" fill="#000000" d="M 283.5,210.5 C 285.857,210.337 288.19,210.503 290.5,211C 307.424,217.197 324.424,223.197 341.5,229C 347.628,241.424 353.628,253.924 359.5,266.5C 346.513,267.666 333.513,267.833 320.5,267C 315.167,265 309.833,263 304.5,261C 303.213,259.59 302.046,258.09 301,256.5C 299.326,260.021 298.16,263.687 297.5,267.5C 295.833,267.5 294.167,267.5 292.5,267.5C 293.598,261.041 295.598,254.874 298.5,249C 293.524,239.547 288.69,230.047 284,220.5C 275.209,224.562 266.543,228.895 258,233.5C 253.803,244.423 249.803,255.423 246,266.5C 244.186,267.76 242.353,267.76 240.5,266.5C 243.833,257.167 247.167,247.833 250.5,238.5C 248.665,237.808 246.832,238.142 245,239.5C 243.697,237.06 242.53,234.56 241.5,232C 255.377,224.562 269.377,217.395 283.5,210.5 Z"/></g>
<g><path style="opacity:0.769" fill="#000000" d="M 263.5,244.5 C 266.707,245.179 269.707,246.346 272.5,248C 271.5,250.333 270.5,252.667 269.5,255C 260.249,255.625 258.249,252.125 263.5,244.5 Z"/></g>
<g><path style="opacity:0.778" fill="#000000" d="M 273.5,248.5 C 276.85,248.506 279.85,249.506 282.5,251.5C 281.593,254.057 280.593,256.557 279.5,259C 276.294,258.82 273.294,257.82 270.5,256C 271.601,253.528 272.601,251.028 273.5,248.5 Z"/></g>
<g><path style="opacity:0.769" fill="#000000" d="M 259.5,254.5 C 262.917,255.076 265.917,256.409 268.5,258.5C 267.617,261.325 266.45,263.992 265,266.5C 262.184,265.338 259.35,264.171 256.5,263C 257.798,260.273 258.798,257.44 259.5,254.5 Z"/></g>
<g><path style="opacity:0.738" fill="#000000" d="M 269.5,258.5 C 272.574,258.873 275.574,259.539 278.5,260.5C 278.335,262.827 277.669,264.993 276.5,267C 273.518,267.498 270.518,267.665 267.5,267.5C 267.756,264.402 268.422,261.402 269.5,258.5 Z"/></g>
<g><path style="opacity:0.488" fill="#000000" d="M 184.5,261.5 C 186.924,261.192 189.257,261.526 191.5,262.5C 191.291,263.086 190.957,263.586 190.5,264C 188.527,264.495 186.527,264.662 184.5,264.5C 184.5,263.5 184.5,262.5 184.5,261.5 Z"/></g>
<g><path style="opacity:0.509" fill="#000000" d="M 197.5,261.5 C 201.555,261.176 205.555,261.509 209.5,262.5C 209.291,263.086 208.957,263.586 208.5,264C 204.848,264.499 201.182,264.665 197.5,264.5C 197.5,263.5 197.5,262.5 197.5,261.5 Z"/></g>
<g><path style="opacity:0.541" fill="#000000" d="M 222.5,261.5 C 226.167,261.5 229.833,261.5 233.5,261.5C 233.5,262.5 233.5,263.5 233.5,264.5C 229.833,264.5 226.167,264.5 222.5,264.5C 222.5,263.5 222.5,262.5 222.5,261.5 Z"/></g>
<g><path style="opacity:0.541" fill="#000000" d="M 370.5,261.5 C 374.167,261.5 377.833,261.5 381.5,261.5C 381.5,262.5 381.5,263.5 381.5,264.5C 377.833,264.5 374.167,264.5 370.5,264.5C 370.5,263.5 370.5,262.5 370.5,261.5 Z"/></g>
<g><path style="opacity:0.553" fill="#000000" d="M 400.5,261.5 C 404.833,261.5 409.167,261.5 413.5,261.5C 413.5,262.5 413.5,263.5 413.5,264.5C 409.167,264.5 404.833,264.5 400.5,264.5C 400.5,263.5 400.5,262.5 400.5,261.5 Z"/></g>
<g><path style="opacity:0.552" fill="#000000" d="M 426.5,261.5 C 430.833,261.5 435.167,261.5 439.5,261.5C 439.5,262.5 439.5,263.5 439.5,264.5C 435.167,264.5 430.833,264.5 426.5,264.5C 426.5,263.5 426.5,262.5 426.5,261.5 Z"/></g>
<g><path style="opacity:0.822" fill="#000000" d="M 204.5,268.5 C 214.19,268.168 223.856,268.502 233.5,269.5C 228.667,269.833 223.833,270.167 219,270.5C 213.784,270.494 208.951,269.827 204.5,268.5 Z"/></g>
<g><path style="opacity:0.847" fill="#000000" d="M 387.5,268.5 C 398.853,268.168 410.186,268.501 421.5,269.5C 415.833,269.833 410.167,270.167 404.5,270.5C 398.458,270.496 392.792,269.829 387.5,268.5 Z"/></g>
<g><path style="opacity:0.847" fill="#000000" d="M 430.5,268.5 C 441.853,268.168 453.186,268.501 464.5,269.5C 458.833,269.833 453.167,270.167 447.5,270.5C 441.458,270.496 435.792,269.829 430.5,268.5 Z"/></g>
<g><path style="opacity:0.841" fill="#000000" d="M 180.5,271.5 C 182.527,271.338 184.527,271.505 186.5,272C 191.733,274.116 197.066,275.949 202.5,277.5C 211.501,275.331 220.501,275.165 229.5,277C 240,283.082 250.334,289.416 260.5,296C 263.541,299.912 266.208,304.079 268.5,308.5C 267.167,309.833 265.833,309.833 264.5,308.5C 262.454,303.95 259.454,300.117 255.5,297C 250.747,294.542 246.247,291.708 242,288.5C 240.691,292.099 239.191,295.599 237.5,299C 242.5,302.167 247.5,305.333 252.5,308.5C 233.845,309.5 215.179,309.833 196.5,309.5C 198.216,300.789 195.05,298.123 187,301.5C 185.349,303.754 185.182,306.088 186.5,308.5C 184.955,309.452 183.288,309.785 181.5,309.5C 181.813,306.753 181.48,304.086 180.5,301.5C 178.059,298.853 174.725,296.52 170.5,294.5C 170.167,293.667 169.833,292.833 169.5,292C 172.188,286.791 174.355,281.291 176,275.5C 177.667,274.267 179.167,272.933 180.5,271.5 Z M 215.5,278.5 C 224.282,277.729 231.616,280.563 237.5,287C 236.223,290.388 234.556,293.555 232.5,296.5C 223.5,291.333 214.5,286.167 205.5,281C 208.909,280.004 212.242,279.171 215.5,278.5 Z"/></g>
<g><path style="opacity:0.497" fill="#000000" d="M 231.5,275.5 C 236.305,274.513 241.305,274.179 246.5,274.5C 246.5,275.5 246.5,276.5 246.5,277.5C 241.271,277.985 236.271,277.318 231.5,275.5 Z"/></g>
<g><path style="opacity:0.564" fill="#000000" d="M 252.5,274.5 C 268.5,274.5 284.5,274.5 300.5,274.5C 300.5,275.5 300.5,276.5 300.5,277.5C 284.5,277.5 268.5,277.5 252.5,277.5C 252.5,276.5 252.5,275.5 252.5,274.5 Z"/></g>
<g><path style="opacity:0.513" fill="#000000" d="M 308.5,274.5 C 313.167,274.5 317.833,274.5 322.5,274.5C 322.5,275.5 322.5,276.5 322.5,277.5C 317.833,277.5 313.167,277.5 308.5,277.5C 308.5,276.5 308.5,275.5 308.5,274.5 Z"/></g>
<g><path style="opacity:0.552" fill="#000000" d="M 328.5,274.5 C 332.833,274.5 337.167,274.5 341.5,274.5C 341.5,275.5 341.5,276.5 341.5,277.5C 337.167,277.5 332.833,277.5 328.5,277.5C 328.5,276.5 328.5,275.5 328.5,274.5 Z"/></g>
<g><path style="opacity:0.566" fill="#000000" d="M 353.5,274.5 C 368.182,274.167 382.848,274.501 397.5,275.5C 397.291,276.086 396.957,276.586 396.5,277C 382.171,277.5 367.837,277.667 353.5,277.5C 353.5,276.5 353.5,275.5 353.5,274.5 Z"/></g>
<g><path style="opacity:0.565" fill="#000000" d="M 411.5,275.5 C 426.182,275.167 440.848,275.501 455.5,276.5C 455.291,277.086 454.957,277.586 454.5,278C 440.171,278.5 425.837,278.667 411.5,278.5C 411.5,277.5 411.5,276.5 411.5,275.5 Z"/></g>
<g><path style="opacity:0.527" fill="#000000" d="M 245.5,283.5 C 249.97,282.514 254.637,282.181 259.5,282.5C 259.5,283.5 259.5,284.5 259.5,285.5C 254.533,286.038 249.866,285.371 245.5,283.5 Z"/></g>
<g><path style="opacity:0.565" fill="#000000" d="M 266.5,282.5 C 285.836,282.333 305.17,282.5 324.5,283C 324.957,283.414 325.291,283.914 325.5,284.5C 305.845,285.5 286.178,285.833 266.5,285.5C 266.5,284.5 266.5,283.5 266.5,282.5 Z"/></g>
<g><path style="opacity:0.562" fill="#000000" d="M 334.5,282.5 C 349.167,282.5 363.833,282.5 378.5,282.5C 378.5,283.5 378.5,284.5 378.5,285.5C 363.833,285.5 349.167,285.5 334.5,285.5C 334.5,284.5 334.5,283.5 334.5,282.5 Z"/></g>
<g><path style="opacity:0.555" fill="#000000" d="M 388.5,282.5 C 401.5,282.5 414.5,282.5 427.5,282.5C 427.5,283.5 427.5,284.5 427.5,285.5C 414.5,285.5 401.5,285.5 388.5,285.5C 388.5,284.5 388.5,283.5 388.5,282.5 Z"/></g>
<g><path style="opacity:0.842" fill="#000000" d="M 276.5,297.5 C 291.182,297.167 305.848,297.501 320.5,298.5C 313.167,298.833 305.833,299.167 298.5,299.5C 290.802,299.497 283.468,298.831 276.5,297.5 Z"/></g>
<g><path style="opacity:0.83" fill="#000000" d="M 329.5,297.5 C 333.884,297.174 338.217,297.508 342.5,298.5C 340.333,298.833 338.167,299.167 336,299.5C 333.39,299.467 331.223,298.8 329.5,297.5 Z"/></g>
<g><path style="opacity:0.771" fill="#000000" d="M 348.5,297.5 C 353.214,297.173 357.88,297.507 362.5,298.5C 360.167,298.833 357.833,299.167 355.5,299.5C 352.731,299.471 350.397,298.805 348.5,297.5 Z"/></g>
<g><path style="opacity:0.842" fill="#000000" d="M 373.5,297.5 C 388.182,297.167 402.848,297.501 417.5,298.5C 410.167,298.833 402.833,299.167 395.5,299.5C 387.802,299.497 380.468,298.831 373.5,297.5 Z"/></g>
<g><path style="opacity:0.842" fill="#000000" d="M 431.5,298.5 C 446.182,298.167 460.848,298.501 475.5,299.5C 468.167,299.833 460.833,300.167 453.5,300.5C 445.802,300.497 438.468,299.831 431.5,298.5 Z"/></g>
<g><path style="opacity:0.714" fill="#000000" d="M 189.5,301.5 C 193.935,301.752 195.268,303.919 193.5,308C 188.57,308.427 187.237,306.26 189.5,301.5 Z"/></g>
<g><path style="opacity:0.608" fill="#000000" d="M 315.5,311.5 C 327.17,311.334 332.337,317.001 331,328.5C 328.431,335.112 323.764,337.779 317,336.5C 315.98,337.891 315.147,339.391 314.5,341C 322.215,340.493 329.882,339.326 337.5,337.5C 339.697,337.848 341.53,338.848 343,340.5C 349.942,334.989 356.609,335.322 363,341.5C 365.072,344.932 365.738,348.598 365,352.5C 363.817,353.731 362.651,353.731 361.5,352.5C 362.764,345.392 359.764,341.059 352.5,339.5C 350.289,340.123 348.289,341.123 346.5,342.5C 348.46,344.156 350.46,345.823 352.5,347.5C 353.583,348.365 353.749,349.365 353,350.5C 349.071,352.985 344.904,353.651 340.5,352.5C 339.437,349.228 339.771,346.061 341.5,343C 341,342.5 340.5,342 340,341.5C 338.245,345.626 336.412,349.626 334.5,353.5C 333.849,349.4 334.515,345.4 336.5,341.5C 328.808,341.617 321.141,342.95 313.5,345.5C 319.646,347.713 325.646,350.213 331.5,353C 325.025,352.956 318.858,351.456 313,348.5C 312,349.833 311,351.167 310,352.5C 307.959,351.577 305.792,351.244 303.5,351.5C 303.5,350.167 303.5,348.833 303.5,347.5C 305.722,347.178 307.556,347.845 309,349.5C 310.653,345.221 312.153,340.888 313.5,336.5C 305.789,330.613 304.456,323.446 309.5,315C 311.432,313.541 313.432,312.375 315.5,311.5 Z M 316.5,314.5 C 326.151,315.305 329.651,320.305 327,329.5C 324.539,332.991 321.372,333.991 317.5,332.5C 318.5,329.833 319.5,327.167 320.5,324.5C 320,324.167 319.5,323.833 319,323.5C 316.965,326.249 315.298,329.249 314,332.5C 309.939,329.428 308.606,325.428 310,320.5C 311.494,317.686 313.66,315.686 316.5,314.5 Z M 343.5,345.5 C 351.657,348.895 351.324,350.228 342.5,349.5C 343.246,348.264 343.579,346.93 343.5,345.5 Z"/></g>
<g><path style="opacity:0.562" fill="#000000" d="M 166.5,316.5 C 181.167,316.5 195.833,316.5 210.5,316.5C 210.5,317.5 210.5,318.5 210.5,319.5C 195.833,319.5 181.167,319.5 166.5,319.5C 166.5,318.5 166.5,317.5 166.5,316.5 Z"/></g>
<g><path style="opacity:0.552" fill="#000000" d="M 219.5,316.5 C 223.833,316.5 228.167,316.5 232.5,316.5C 232.5,317.5 232.5,318.5 232.5,319.5C 228.167,319.5 223.833,319.5 219.5,319.5C 219.5,318.5 219.5,317.5 219.5,316.5 Z"/></g>
<g><path style="opacity:0.552" fill="#000000" d="M 238.5,316.5 C 242.833,316.5 247.167,316.5 251.5,316.5C 251.5,317.5 251.5,318.5 251.5,319.5C 247.167,319.5 242.833,319.5 238.5,319.5C 238.5,318.5 238.5,317.5 238.5,316.5 Z"/></g>
<g><path style="opacity:0.551" fill="#000000" d="M 263.5,316.5 C 273.167,316.5 282.833,316.5 292.5,316.5C 292.5,317.5 292.5,318.5 292.5,319.5C 282.833,319.5 273.167,319.5 263.5,319.5C 263.5,318.5 263.5,317.5 263.5,316.5 Z"/></g>
<g><path style="opacity:0.845" fill="#000000" d="M 398.5,316.5 C 404.768,319.302 410.768,322.635 416.5,326.5C 411.959,334.416 407.293,342.249 402.5,350C 409.487,349.07 416.487,347.737 423.5,346C 424.976,343.357 426.976,341.19 429.5,339.5C 432.619,340.694 432.952,342.194 430.5,344C 433.232,344.154 435.898,343.654 438.5,342.5C 439.167,343.833 439.833,345.167 440.5,346.5C 442.5,344.833 444.5,343.167 446.5,341.5C 448.451,343.229 449.618,345.229 450,347.5C 445.79,353.277 440.29,354.944 433.5,352.5C 435.316,351.185 436.983,349.685 438.5,348C 434.801,347.904 431.134,348.404 427.5,349.5C 425.714,351.453 423.547,352.787 421,353.5C 419.553,353.055 418.22,352.388 417,351.5C 415.189,352.078 413.355,352.578 411.5,353C 400.505,353.5 389.505,353.667 378.5,353.5C 384.88,341.077 391.547,328.744 398.5,316.5 Z"/></g>
<g><path style="opacity:0.838" fill="#000000" d="M 337.5,318.5 C 346.857,318.168 356.19,318.502 365.5,319.5C 360.833,319.833 356.167,320.167 351.5,320.5C 346.449,320.493 341.783,319.827 337.5,318.5 Z"/></g>
<g><path style="opacity:0.799" fill="#000000" d="M 209.5,357.5 C 215.833,357.5 222.167,357.5 228.5,357.5C 228.5,358.5 228.5,359.5 228.5,360.5C 222.167,360.5 215.833,360.5 209.5,360.5C 209.5,359.5 209.5,358.5 209.5,357.5 Z"/></g>
<g><path style="opacity:0.815" fill="#000000" d="M 256.5,357.5 C 277.833,357.5 299.167,357.5 320.5,357.5C 320.5,358.5 320.5,359.5 320.5,360.5C 299.167,360.5 277.833,360.5 256.5,360.5C 256.5,359.5 256.5,358.5 256.5,357.5 Z"/></g>
<g><path style="opacity:0.799" fill="#000000" d="M 334.5,357.5 C 340.833,357.5 347.167,357.5 353.5,357.5C 353.5,358.5 353.5,359.5 353.5,360.5C 347.167,360.5 340.833,360.5 334.5,360.5C 334.5,359.5 334.5,358.5 334.5,357.5 Z"/></g>
<g><path style="opacity:0.8" fill="#000000" d="M 362.5,357.5 C 368.833,357.5 375.167,357.5 381.5,357.5C 381.5,358.5 381.5,359.5 381.5,360.5C 375.167,360.5 368.833,360.5 362.5,360.5C 362.5,359.5 362.5,358.5 362.5,357.5 Z"/></g>
<g><path style="opacity:0.802" fill="#000000" d="M 398.5,357.5 C 420.167,357.5 441.833,357.5 463.5,357.5C 463.5,358.5 463.5,359.5 463.5,360.5C 441.833,360.5 420.167,360.5 398.5,360.5C 398.5,359.5 398.5,358.5 398.5,357.5 Z"/></g>
<g><path style="opacity:0.612" fill="#000000" d="M 160.5,367.5 C 185.833,367.5 211.167,367.5 236.5,367.5C 236.5,368.833 236.5,370.167 236.5,371.5C 211.167,371.5 185.833,371.5 160.5,371.5C 160.5,370.167 160.5,368.833 160.5,367.5 Z"/></g>
<g><path style="opacity:0.589" fill="#000000" d="M 257.5,367.5 C 265.167,367.5 272.833,367.5 280.5,367.5C 280.5,368.833 280.5,370.167 280.5,371.5C 272.833,371.5 265.167,371.5 257.5,371.5C 257.5,370.167 257.5,368.833 257.5,367.5 Z"/></g>
<g><path style="opacity:0.596" fill="#000000" d="M 291.5,367.5 C 299.167,367.5 306.833,367.5 314.5,367.5C 314.67,368.822 314.337,369.989 313.5,371C 306.174,371.5 298.841,371.666 291.5,371.5C 291.5,370.167 291.5,368.833 291.5,367.5 Z"/></g>
<g><path style="opacity:0.612" fill="#000000" d="M 330.5,367.5 C 355.833,367.5 381.167,367.5 406.5,367.5C 406.5,368.833 406.5,370.167 406.5,371.5C 381.167,371.5 355.833,371.5 330.5,371.5C 330.5,370.167 330.5,368.833 330.5,367.5 Z"/></g>
<g><path style="opacity:0.589" fill="#000000" d="M 425.5,367.5 C 433.167,367.5 440.833,367.5 448.5,367.5C 448.5,368.833 448.5,370.167 448.5,371.5C 440.833,371.5 433.167,371.5 425.5,371.5C 425.5,370.167 425.5,368.833 425.5,367.5 Z"/></g>
<g><path style="opacity:0.982" fill="#000000" d="M 511.5,436.5 C 511.5,437.5 511.5,438.5 511.5,439.5C 340.833,439.5 170.167,439.5 -0.5,439.5C -0.5,438.5 -0.5,437.5 -0.5,436.5C 0.670114,434.35 1.67011,432.016 2.5,429.5C 8.83333,425.333 15.1667,421.167 21.5,417C 27.597,409.48 33.9303,402.147 40.5,395C 50.9172,390.527 61.2506,385.861 71.5,381C 82.4917,380.039 93.4917,379.706 104.5,380C 114.656,382.581 124.823,385.081 135,387.5C 147.013,385.915 159.013,384.248 171,382.5C 180.487,385.662 189.987,388.829 199.5,392C 224.157,392.993 248.824,393.66 273.5,394C 305.833,399 338.167,404 370.5,409C 404.5,409.333 438.5,409.667 472.5,410C 481.529,411.872 490.529,413.872 499.5,416C 503.4,422.978 507.4,429.812 511.5,436.5 Z"/></g>
</svg>
